<?xml version="1.0" encoding="UTF-8"?>
<!DOCTYPE svg PUBLIC "-//W3C//DTD SVG 1.1//EN" "http://www.w3.org/Graphics/SVG/1.1/DTD/svg11.dtd">
<!-- Creator: CorelDRAW -->
<svg xmlns="http://www.w3.org/2000/svg" xml:space="preserve" width="0.999992in" height="0.999992in" version="1.1" style="shape-rendering:geometricPrecision; text-rendering:geometricPrecision; image-rendering:optimizeQuality; fill-rule:evenodd; clip-rule:evenodd"
viewBox="0 0 999.99 999.99"
 xmlns:xlink="http://www.w3.org/1999/xlink"
 xmlns:xodm="http://www.corel.com/coreldraw/odm/2003">
 <defs>
  <style type="text/css">
   <![CDATA[
    .str0 {stroke:#0B30B5;stroke-width:41.67;stroke-miterlimit:2.61313}
    .fil25 {fill:#0B30B5}
    .fil9 {fill:url(#id0)}
    .fil1 {fill:url(#id1)}
    .fil20 {fill:url(#id2)}
    .fil5 {fill:url(#id3)}
    .fil4 {fill:url(#id4)}
    .fil16 {fill:url(#id5)}
    .fil6 {fill:url(#id6)}
    .fil8 {fill:url(#id7)}
    .fil17 {fill:url(#id8)}
    .fil12 {fill:url(#id9)}
    .fil18 {fill:url(#id10)}
    .fil13 {fill:url(#id11)}
    .fil23 {fill:url(#id12)}
    .fil24 {fill:url(#id13)}
    .fil15 {fill:url(#id14)}
    .fil11 {fill:url(#id15)}
    .fil2 {fill:url(#id16)}
    .fil0 {fill:url(#id17)}
    .fil19 {fill:url(#id18)}
    .fil22 {fill:url(#id19)}
    .fil21 {fill:url(#id20)}
    .fil10 {fill:url(#id21)}
    .fil14 {fill:url(#id22)}
    .fil7 {fill:url(#id23)}
    .fil3 {fill:url(#id24)}
   ]]>
  </style>
  <linearGradient id="id0" gradientUnits="userSpaceOnUse" x1="4801.36" y1="-2707.5" x2="5509.6" y2="-2360">
   <stop offset="0" style="stop-opacity:1; stop-color:#333399"/>
   <stop offset="1" style="stop-opacity:1; stop-color:#FF00CC"/>
  </linearGradient>
  <linearGradient id="id1" gradientUnits="userSpaceOnUse" xlink:href="#id0" x1="3903.93" y1="-2685.49" x2="3903.93" y2="-2823.09">
  </linearGradient>
  <linearGradient id="id2" gradientUnits="userSpaceOnUse" x1="3689.6" y1="-3707.34" x2="3689.6" y2="-3940.51">
   <stop offset="0" style="stop-opacity:1; stop-color:black"/>
   <stop offset="0.521569" style="stop-opacity:1; stop-color:#A8A8A8"/>
   <stop offset="1" style="stop-opacity:1; stop-color:black"/>
  </linearGradient>
  <linearGradient id="id3" gradientUnits="userSpaceOnUse" x1="3971.08" y1="-2179.21" x2="3971.08" y2="-2462.24">
   <stop offset="0" style="stop-opacity:1; stop-color:#58236B"/>
   <stop offset="0.639216" style="stop-opacity:1; stop-color:#F6DEFF"/>
   <stop offset="1" style="stop-opacity:1; stop-color:#58236B"/>
  </linearGradient>
  <linearGradient id="id4" gradientUnits="userSpaceOnUse" xlink:href="#id3" x1="4038.23" y1="-2685.49" x2="4038.23" y2="-2823.09">
  </linearGradient>
  <linearGradient id="id5" gradientUnits="userSpaceOnUse" xlink:href="#id0" x1="3143.08" y1="-2707.5" x2="2434.84" y2="-2360">
  </linearGradient>
  <linearGradient id="id6" gradientUnits="userSpaceOnUse" xlink:href="#id0" x1="3797.18" y1="-2895.38" x2="3797.18" y2="-4849.04">
  </linearGradient>
  <linearGradient id="id7" gradientUnits="userSpaceOnUse" xlink:href="#id2" x1="4989.29" y1="-2545.29" x2="5521.18" y2="-2660.08">
  </linearGradient>
  <linearGradient id="id8" gradientUnits="userSpaceOnUse" xlink:href="#id2" x1="2955.15" y1="-2545.29" x2="2423.26" y2="-2660.08">
  </linearGradient>
  <linearGradient id="id9" gradientUnits="userSpaceOnUse" xlink:href="#id2" x1="3341.86" y1="-2932.46" x2="2730.54" y2="-3415.48">
  </linearGradient>
  <linearGradient id="id10" gradientUnits="userSpaceOnUse" xlink:href="#id3" x1="3334.33" y1="-2157.78" x2="2226.89" y2="-2621.73">
  </linearGradient>
  <linearGradient id="id11" gradientUnits="userSpaceOnUse" xlink:href="#id3" x1="4145.04" y1="-2911.75" x2="4145.04" y2="-4848.93">
  </linearGradient>
  <linearGradient id="id12" gradientUnits="userSpaceOnUse" xlink:href="#id3" x1="4081.83" y1="-2401.72" x2="4081.83" y2="-2641.47">
  </linearGradient>
  <linearGradient id="id13" gradientUnits="userSpaceOnUse" xlink:href="#id0" x1="3860.44" y1="-2400.98" x2="3860.44" y2="-2641.47">
  </linearGradient>
  <linearGradient id="id14" gradientUnits="userSpaceOnUse" xlink:href="#id0" x1="3983.75" y1="-2867.12" x2="3983.75" y2="-4706.1">
  </linearGradient>
  <linearGradient id="id15" gradientUnits="userSpaceOnUse" xlink:href="#id0" x1="3682.66" y1="-3022.44" x2="2556.15" y2="-3022.44">
  </linearGradient>
  <linearGradient id="id16" gradientUnits="userSpaceOnUse" xlink:href="#id0" x1="4261.76" y1="-3022.44" x2="5388.28" y2="-3022.44">
  </linearGradient>
  <linearGradient id="id17" gradientUnits="userSpaceOnUse" xlink:href="#id3" x1="3952.5" y1="-2867.12" x2="3952.5" y2="-4706.1">
  </linearGradient>
  <linearGradient id="id18" gradientUnits="userSpaceOnUse" xlink:href="#id2" x1="3748.62" y1="-4189.42" x2="3748.62" y2="-4521.08">
  </linearGradient>
  <linearGradient id="id19" gradientUnits="userSpaceOnUse" xlink:href="#id2" x1="4017.61" y1="-3659.71" x2="4017.61" y2="-4258.12">
  </linearGradient>
  <linearGradient id="id20" gradientUnits="userSpaceOnUse" xlink:href="#id2" x1="3837.32" y1="-3186.74" x2="3837.32" y2="-3318.11">
  </linearGradient>
  <linearGradient id="id21" gradientUnits="userSpaceOnUse" xlink:href="#id2" x1="4602.57" y1="-2932.46" x2="5213.9" y2="-3415.48">
  </linearGradient>
  <linearGradient id="id22" gradientUnits="userSpaceOnUse" xlink:href="#id3" x1="3587.5" y1="-2195.17" x2="2488.23" y2="-3490.03">
  </linearGradient>
  <linearGradient id="id23" gradientUnits="userSpaceOnUse" xlink:href="#id3" x1="4610.11" y1="-2157.78" x2="5717.54" y2="-2621.73">
  </linearGradient>
  <linearGradient id="id24" gradientUnits="userSpaceOnUse" xlink:href="#id3" x1="4356.94" y1="-2195.17" x2="5456.21" y2="-3490.03">
  </linearGradient>
 </defs>
<symbol id="Fm1-21-0" viewBox="3912.22 -4706.1 52.95 1838.97">
 <path class="fil0" d="M3940.7 -3454.02c3.89,-159.54 10.85,-586.44 13.47,-751.25 3.69,-166.94 6.6,-333.89 11,-500.83 0,0 -110.6,742.52 -12.11,1838.97 -1.65,-28.68 -3.17,-57.36 -4.49,-86.06 -7.36,-164.28 -11.57,-336.56 -7.87,-500.83z"/>
</symbol>
<symbol id="Fm11-23-0" viewBox="3892.34 -2823.1 23.18 137.63">
 <path class="fil1" d="M3892.34 -2823.1l0 137.63c12.81,0 23.18,-30.82 23.18,-68.82 0,-38 -10.37,-68.81 -23.18,-68.81z"/>
</symbol>
<symbol id="Fm13-25-0" viewBox="4258.68 -3778.3 1129.61 1511.71">
 <path class="fil2" d="M5388.29 -3778.3c-70.56,177.68 -220.14,312.17 -375.69,423.76 -157.33,112.86 -327.49,211.14 -462.17,350.29 -188.68,194.96 -294.83,466.64 -291.68,737.65 11.61,-236.96 113.7,-469.15 282.97,-635.71 110.09,-108.33 244.41,-187.99 374.42,-271.35 130.03,-83.36 259.35,-173.58 352.72,-296.61 67.39,-88.8 113.72,-198.03 119.43,-308.04z"/>
</symbol>
<symbol id="Fm14-26-0" viewBox="4265.94 -3652.35 1176.91 1465.03">
 <path class="fil3" d="M4655.08 -2616.64c192.99,-102.47 405.63,-179.18 562.28,-331.52 181.09,-176.08 259.42,-454.78 211.86,-704.19 10.82,210.39 -62.98,425.4 -205.47,581.15 -110.24,120.48 -254.36,203.64 -396.32,284.35 -141.96,80.71 -286.54,162.72 -398.47,281.63 -82.68,87.82 -145.76,200.17 -163.01,317.9 46.67,-208.18 199,-328.36 389.14,-429.32z"/>
</symbol>
<symbol id="Fm12-24-0" viewBox="4026.65 -2823.1 23.18 137.63">
 <path class="fil4" d="M4026.65 -2754.3c0,38 10.37,68.82 23.18,68.82l0 -137.63c-12.81,0 -23.18,30.81 -23.18,68.81z"/>
</symbol>
<symbol id="Fm10-22-0" viewBox="3932.34 -2462.24 77.49 283.03">
 <path class="fil5" d="M4009.83 -2401.72c0,-33.42 -17.35,-60.52 -38.75,-60.52 -21.39,0 -38.74,27.1 -38.74,60.52 0,17.87 5.04,33.78 12.93,44.85l0 177.67 15.07 0 0 -196.68c-11.47,-4.35 -19.67,-15.36 -19.67,-28.35 0,-16.79 13.61,-30.4 30.4,-30.4 16.79,0 30.4,13.61 30.4,30.4 0,12.98 -8.19,24 -19.67,28.35l0 196.68 14.03 0 0 -176.35c8.47,-11.08 13.99,-27.54 13.99,-46.17z"/>
</symbol>
<symbol id="Fm0-20-0" viewBox="3603.73 -4849.03 358.92 1953.64">
 <path class="fil6" d="M3666.73 -4125.77c-13.29,-41.58 -28.76,-86.04 -42.03,-127.65 -51.32,239.25 -9.31,507.18 135.61,704.33 -25.89,-30.02 -63.68,-50.96 -101.22,-63.67 97.83,95.22 114.43,243.71 130.08,379.33 13.97,121.11 -2.86,253.52 71.71,338.03 -20.79,-57.96 -26.56,-121.47 -26.74,-183.5 -0.21,-79.79 7.9,-159.76 0.72,-239.22 -7.18,-79.46 -28.19,-164.82 -83.76,-222.07 18.15,9.4 44.35,14.17 62.52,23.58 -111.28,-178.19 -167.15,-381.47 -163.29,-591.53 23.32,41.14 53.15,78.28 89.69,108.26 -63.1,-296.85 22.57,-621.24 222.63,-849.17 -215.89,162.13 -335.46,456.24 -295.92,723.26z"/>
</symbol>
<symbol id="Fm17-29-0" viewBox="4549 -2742.35 1180.06 560.69">
 <path class="fil7" d="M4925.05 -2331.13c152.54,-4.87 309.44,12.44 454.54,-34.87 167.71,-54.69 302.54,-205.35 349.46,-376.35 -57.94,135.24 -170.37,247.33 -307.63,301.15 -106.17,41.64 -222.11,49.44 -335.94,56.37 -113.83,6.93 -229.72,13.87 -336.48,54 -78.85,29.61 -152.96,80.65 -200,149.17 93.31,-116.15 225.79,-144.65 376.06,-149.47z"/>
</symbol>
<symbol id="Fm18-30-0" viewBox="4941.86 -2677.52 630.61 132.42">
 <path class="fil8" d="M4941.86 -2545.1c203.54,-73.82 432.28,-40.11 630.61,-132.42 -194.28,103.5 -424.43,70.1 -630.61,132.42z"/>
</symbol>
<symbol id="Fm16-28-0" viewBox="4568.89 -2833.92 1173.24 600.36">
 <path class="fil9" d="M5742.12 -2833.92c-98.91,89.7 -234.04,128.02 -365.92,150.13 -133.37,22.36 -270.28,31.64 -397.53,77.46 -178.28,64.2 -328.42,201.88 -409.79,372.78 80.17,-145 215.59,-259.18 372.97,-311.54 102.33,-34.06 211.06,-42.68 318.22,-54.94 107.17,-12.28 216.02,-29.06 312.4,-77.47 69.57,-34.94 132.24,-89.17 169.64,-156.4z"/>
</symbol>
<symbol id="Fm15-27-0" viewBox="4541.72 -3470.26 727.14 567.96">
 <path class="fil10" d="M4541.72 -2902.3c215.1,-223.26 530.39,-324.21 727.14,-567.96 -184.49,255.59 -501.42,357.8 -727.14,567.96z"/>
</symbol>
<symbol id="Fm19-31-0" viewBox="2556.16 -3778.3 1129.59 1511.71">
 <path class="fil11" d="M2556.16 -3778.3c70.56,177.68 220.13,312.17 375.68,423.76 157.35,112.86 327.49,211.14 462.15,350.29 188.71,194.96 294.85,466.64 291.68,737.65 -11.61,-236.96 -113.7,-469.15 -282.96,-635.71 -110.08,-108.33 -244.4,-187.99 -374.41,-271.35 -130.03,-83.36 -259.35,-173.58 -352.72,-296.61 -67.39,-88.8 -113.72,-198.03 -119.42,-308.04z"/>
</symbol>
<symbol id="Fm21-34-0" viewBox="2675.58 -3470.26 727.14 567.96">
 <path class="fil12" d="M3402.72 -2902.3c-215.11,-223.26 -530.39,-324.21 -727.14,-567.96 184.49,255.59 501.4,357.8 727.14,567.96z"/>
</symbol>
<symbol id="Fm2-32-0" viewBox="3979.63 -4848.93 358.78 1937.18">
 <path class="fil13" d="M4181.83 -3549.09c144.9,-197.14 186.92,-465.02 135.64,-704.24 -13.26,41.57 -28.72,86 -41.97,127.56 0,-0.08 0.02,-0.15 0.02,-0.25 -0.02,0.09 -0.04,0.17 -0.07,0.25 10,-67.57 9.82,-136.9 0.47,-205.37 -0.07,-0.46 -0.15,-0.91 -0.21,-1.36 -1.11,-8.03 -2.33,-16.04 -3.69,-24.03 -0.2,-1.15 -0.43,-2.29 -0.63,-3.43 -1.28,-7.3 -2.63,-14.57 -4.1,-21.82 -0.37,-1.79 -0.79,-3.57 -1.15,-5.35 -1.4,-6.59 -2.82,-13.19 -4.39,-19.76 -0.56,-2.32 -1.18,-4.63 -1.75,-6.94 -1.47,-6 -2.97,-12 -4.58,-17.96 -0.76,-2.82 -1.61,-5.64 -2.42,-8.44 -1.53,-5.43 -3.07,-10.86 -4.71,-16.28 -1,-3.25 -2.08,-6.47 -3.11,-9.72 -1.57,-4.9 -3.14,-9.82 -4.79,-14.71 -1.26,-3.71 -2.6,-7.36 -3.91,-11.04 -1.57,-4.39 -3.12,-8.78 -4.75,-13.14 -1.53,-4.07 -3.14,-8.11 -4.75,-12.15 -1.53,-3.91 -3.04,-7.83 -4.65,-11.72 -1.81,-4.4 -3.71,-8.75 -5.6,-13.11 -1.5,-3.5 -3,-7.02 -4.56,-10.49 -2.08,-4.65 -4.26,-9.25 -6.43,-13.86 -1.47,-3.13 -2.93,-6.26 -4.43,-9.36 -2.39,-4.9 -4.87,-9.75 -7.36,-14.58 -1.4,-2.76 -2.79,-5.53 -4.22,-8.26 -2.69,-5.11 -5.47,-10.15 -8.28,-15.21 -1.33,-2.42 -2.64,-4.83 -4.01,-7.24 -2.99,-5.28 -6.08,-10.49 -9.18,-15.68 -1.26,-2.11 -2.51,-4.25 -3.81,-6.36 -3.29,-5.37 -6.67,-10.71 -10.08,-16.01 -1.19,-1.85 -2.36,-3.72 -3.57,-5.56 -3.6,-5.47 -7.26,-10.89 -11,-16.26 -1.11,-1.6 -2.21,-3.24 -3.33,-4.83 -3.89,-5.53 -7.87,-10.99 -11.92,-16.42 -1.03,-1.39 -2.04,-2.79 -3.08,-4.17 -4.17,-5.54 -8.44,-11 -12.75,-16.42 -0.98,-1.21 -1.93,-2.44 -2.91,-3.67 -4.46,-5.5 -8.99,-10.93 -13.59,-16.31 -0.9,-1.07 -1.8,-2.14 -2.72,-3.19 -4.69,-5.44 -9.5,-10.8 -14.35,-16.09 -0.87,-0.94 -1.72,-1.91 -2.61,-2.86 -4.93,-5.33 -9.99,-10.59 -15.09,-15.76 -0.82,-0.85 -1.65,-1.71 -2.48,-2.54 -5.17,-5.21 -10.44,-10.33 -15.76,-15.37 -0.82,-0.76 -1.63,-1.54 -2.44,-2.31 -5.39,-5.04 -10.83,-9.98 -16.37,-14.85 -0.82,-0.72 -1.64,-1.44 -2.46,-2.17 -5.57,-4.85 -11.21,-9.6 -16.91,-14.25 -0.85,-0.69 -1.67,-1.39 -2.52,-2.06 -5.74,-4.64 -11.54,-9.17 -17.42,-13.6 -0.48,-0.37 -0.96,-0.74 -1.44,-1.09 200,227.93 285.63,552.26 222.54,849.07 36.54,-29.98 66.39,-67.12 89.69,-108.26 3.88,210.06 -52.01,413.33 -163.29,591.53 18.17,-9.42 44.36,-14.18 62.52,-23.58 -55.57,57.25 -76.58,142.61 -83.76,222.07 -7.17,79.46 0.94,159.43 0.72,239.22 -0.17,56.26 -5.04,113.7 -21.43,167.14 61.51,-84.64 53.26,-208.11 66.36,-321.67 15.64,-135.63 32.25,-284.08 130.06,-379.32 -37.53,12.72 -75.26,33.65 -101.15,63.65 0.04,-0.06 0.08,-0.13 0.14,-0.18 -0.06,0.07 -0.13,0.11 -0.19,0.18z"/>
</symbol>
<symbol id="Fm20-33-0" viewBox="2501.58 -3652.35 1176.9 1465.03">
 <path class="fil14" d="M3289.37 -2616.64c-193,-102.47 -405.62,-179.18 -562.3,-331.52 -181.1,-176.08 -259.41,-454.78 -211.85,-704.19 -10.82,210.39 62.99,425.4 205.47,581.15 110.24,120.48 254.36,203.64 396.31,284.35 141.96,80.71 286.56,162.72 398.48,281.63 82.68,87.82 145.75,200.17 163,317.9 -46.67,-208.18 -198.98,-328.36 -389.11,-429.32z"/>
</symbol>
<symbol id="Fm3-38-0" viewBox="3971.08 -4706.1 52.94 1838.97">
 <path class="fil15" d="M3995.54 -3454.02c-3.89,-159.54 -10.85,-586.44 -13.46,-751.25 -3.71,-166.94 -6.61,-333.89 -11,-500.83 0,0 110.58,742.52 12.11,1838.97 1.64,-28.68 3.15,-57.36 4.47,-86.06 7.35,-164.28 11.57,-336.56 7.88,-500.83z"/>
</symbol>
<symbol id="Fm22-35-0" viewBox="2202.31 -2833.92 1173.25 600.36">
 <path class="fil16" d="M2202.31 -2833.92c98.9,89.7 234.06,128.02 365.92,150.13 133.36,22.36 270.29,31.64 397.53,77.46 178.29,64.2 328.4,201.88 409.81,372.78 -80.18,-145 -215.61,-259.18 -372.99,-311.54 -102.35,-34.06 -211.07,-42.68 -318.22,-54.94 -107.17,-12.28 -216.02,-29.06 -312.41,-77.47 -69.57,-34.94 -132.24,-89.17 -169.64,-156.4z"/>
</symbol>
<symbol id="Fm24-37-0" viewBox="2371.95 -2677.52 630.63 132.42">
 <path class="fil17" d="M3002.58 -2545.1c-203.54,-73.82 -432.28,-40.11 -630.63,-132.42 194.3,103.5 424.43,70.1 630.63,132.42z"/>
</symbol>
<symbol id="Fm23-36-0" viewBox="2215.39 -2742.35 1180.04 560.69">
 <path class="fil18" d="M3019.39 -2331.13c-152.53,-4.87 -309.44,12.44 -454.53,-34.87 -167.72,-54.69 -302.56,-205.35 -349.47,-376.35 57.94,135.24 170.36,247.33 307.61,301.15 106.18,41.64 222.13,49.44 335.96,56.37 113.85,6.93 229.72,13.87 336.49,54 78.85,29.61 152.97,80.65 199.98,149.17 -93.28,-116.15 -225.78,-144.65 -376.04,-149.47z"/>
</symbol>
<symbol id="Fm4-39-0" viewBox="3718.35 -4521.09 55.69 331.67">
 <path class="fil19" d="M3719.63 -4189.42c-6.61,-112.56 12.39,-227.06 54.41,-331.67 -30.85,108.19 -49.38,219.26 -54.41,331.67z"/>
</symbol>
<symbol id="Fm5-40-0" viewBox="3660.08 -3940.5 59.04 233.17">
 <path class="fil20" d="M3719.12 -3707.34c-33.87,-73.06 -54.1,-152.79 -59.04,-233.17 16.13,76.37 36.82,158.33 59.04,233.17z"/>
</symbol>
<symbol id="Fm6-41-0" viewBox="3833.35 -3318.11 8.91 131.37">
 <path class="fil21" d="M3836.78 -3186.74c-4.53,-44.01 -3.89,-87.22 -1.91,-131.37 9.88,43.13 9.17,87.9 1.91,131.37z"/>
</symbol>
<symbol id="Fm7-42-0" viewBox="4010.98 -4258.11 16.45 598.4">
 <path class="fil22" d="M4010.98 -4258.11c16.64,198.9 20.41,398.97 12.43,598.4 -3.04,-169.74 -8.15,-430.65 -12.43,-598.4z"/>
</symbol>
<symbol id="Fm9-44-0" viewBox="4045.78 -2641.48 61.64 239.75">
 <path class="fil23" d="M4054.01 -2641.48l-0.7 0c-20.11,82.5 0.79,173.79 54.11,239.75l-53.41 -239.75z"/>
</symbol>
<symbol id="Fm8-43-0" viewBox="3834.57 -2641.48 62.26 240.5">
 <path class="fil24" d="M3889.31 -2641.48l-1.18 0 -53.57 240.5c53.76,-66.03 74.91,-157.68 54.75,-240.5z"/>
</symbol>
 <g id="Layer_x0020_1">
  <metadata id="CorelCorpID_0Corel-Layer"/>
  <path class="fil25 str0" d="M151.9 483.64l0 388.13c0,20.71 16.52,26.11 34.81,26.11l210.6 0c42.78,0 33.07,-27.66 33.07,-71.36 0,-35.39 0,-70.78 0,-106.17 0,-36.69 -6.1,-90.93 16.05,-114.49 3.4,-3.62 9.6,-10.11 13.25,-12.86 9.11,-6.87 25.83,-13.15 40.32,-13.15 29.84,0 53.15,19.38 62.93,41.02 10.53,23.28 6.69,66.05 6.69,99.48l-0.03 156.67c1.28,15.5 16,20.86 33.1,20.86l210.6 0c18.14,0 34.81,-5.25 34.81,-26.11l0 -388.13c0,-7.61 -2.51,-13.63 -6.42,-17.95 -15.84,-17.55 -40.57,-2.71 -40.57,12.73l0 370.73 -184.5 0 0 -196.68c0,-17.14 -4.02,-37.47 -9.83,-49.35 -3.33,-6.8 -6.18,-13.31 -10.3,-19.29 -2.83,-4.11 -3.47,-4.29 -6.2,-7.72 -68.07,-85.69 -206.89,-35.8 -206.89,72.88l0 200.16 -184.5 0 0 -370.73c0,-24.02 -46.99,-31.74 -46.99,5.22z"/>
  <path class="fil25 str0" d="M54.43 431.42c0,18.33 7.99,26.11 26.11,26.11 10.07,0 69.25,-46.22 79.82,-54.2l287.42 -210.37c17.45,-12.25 34.45,-26.37 52.22,-38.28 34.1,22.83 92.07,67.59 129.8,94.72l248.16 181.74c14.72,10.81 42.1,38.75 60.35,20.86 6.81,-6.67 7.26,-12.24 7.26,-20.59 0,-13.92 -33.5,-33.37 -49.98,-45.75l-361.79 -264.8c-33.48,-24.07 -32.64,-25.68 -66.6,-0.73l-96.48 70.61c-5.21,3.89 -8.87,6.16 -14.19,10.17l-181.73 133.3c-5.03,3.7 -9.42,6.58 -14.2,10.17l-83.27 61.19c-7.78,5.72 -22.89,13.6 -22.89,25.84z"/>
 </g>
</svg>
